<?xml version="1.0" encoding="UTF-8"?><!DOCTYPE svg PUBLIC "-//W3C//DTD SVG 1.1//EN" "http://www.w3.org/Graphics/SVG/1.1/DTD/svg11.dtd"><svg xmlns="http://www.w3.org/2000/svg" xmlns:xlink="http://www.w3.org/1999/xlink"><defs/><symbol id="add" viewBox="0 0 12 12">
<path fill-rule="evenodd" clip-rule="evenodd" d="M6 1.75C6.41421 1.75 6.75 2.08579 6.75 2.5V9.5C6.75 9.91421 6.41421 10.25 6 10.25C5.58579 10.25 5.25 9.91421 5.25 9.5V2.5C5.25 2.08579 5.58579 1.75 6 1.75Z"/>
<path fill-rule="evenodd" clip-rule="evenodd" d="M1.75 6C1.75 5.58579 2.08579 5.25 2.5 5.25H9.5C9.91421 5.25 10.25 5.58579 10.25 6C10.25 6.41421 9.91421 6.75 9.5 6.75H2.5C2.08579 6.75 1.75 6.41421 1.75 6Z"/>
</symbol><symbol id="checkmark" viewBox="0 0 12 12">
<path fill-rule="evenodd" clip-rule="evenodd" d="M1.46967 6.06952C1.76256 5.77663 2.23744 5.77663 2.53033 6.06952L4.93032 8.46951C5.22321 8.76241 5.22321 9.23728 4.93032 9.53017C4.63743 9.82307 4.16255 9.82307 3.86966 9.53017L1.46967 7.13018C1.17678 6.83729 1.17678 6.36242 1.46967 6.06952Z"/>
<path fill-rule="evenodd" clip-rule="evenodd" d="M10.5303 2.86957C10.8232 3.16247 10.8232 3.63734 10.5303 3.93023L4.93032 9.53017C4.63743 9.82307 4.16255 9.82307 3.86966 9.53017C3.57677 9.23728 3.57669 8.76256 3.86958 8.46966L9.46967 2.86957C9.76256 2.57668 10.2374 2.57668 10.5303 2.86957Z"/>
</symbol><symbol id="chevron-down" viewBox="0 0 12 12">
<path fill-rule="evenodd" clip-rule="evenodd" d="M2.46967 3.96967C2.76256 3.67678 3.23744 3.67678 3.53033 3.96967L6 6.43934L8.46967 3.96967C8.76256 3.67678 9.23744 3.67678 9.53033 3.96967C9.82322 4.26256 9.82322 4.73744 9.53033 5.03033L6.53033 8.03033C6.23744 8.32322 5.76256 8.32322 5.46967 8.03033L2.46967 5.03033C2.17678 4.73744 2.17678 4.26256 2.46967 3.96967Z"/>
</symbol><symbol id="chevron-left" viewBox="0 0 12 12">
<path fill-rule="evenodd" clip-rule="evenodd" d="M8.03033 2.46967C8.32322 2.76256 8.32322 3.23744 8.03033 3.53033L5.56066 6L8.03033 8.46967C8.32322 8.76256 8.32322 9.23744 8.03033 9.53033C7.73744 9.82322 7.26256 9.82322 6.96967 9.53033L3.96967 6.53033C3.67678 6.23744 3.67678 5.76256 3.96967 5.46967L6.96967 2.46967C7.26256 2.17678 7.73744 2.17678 8.03033 2.46967Z"/>
</symbol><symbol id="chevron-right" viewBox="0 0 12 12">
<path fill-rule="evenodd" clip-rule="evenodd" d="M3.96967 2.46967C4.26256 2.17678 4.73744 2.17678 5.03033 2.46967L8.03033 5.46967C8.32322 5.76256 8.32322 6.23744 8.03033 6.53033L5.03033 9.53033C4.73744 9.82322 4.26256 9.82322 3.96967 9.53033C3.67678 9.23744 3.67678 8.76256 3.96967 8.46967L6.43934 6L3.96967 3.53033C3.67678 3.23744 3.67678 2.76256 3.96967 2.46967Z"/>
</symbol><symbol id="chevron-up" viewBox="0 0 12 12">
<path fill-rule="evenodd" clip-rule="evenodd" d="M5.46967 3.96967C5.76256 3.67678 6.23744 3.67678 6.53033 3.96967L9.53033 6.96967C9.82322 7.26256 9.82322 7.73744 9.53033 8.03033C9.23744 8.32322 8.76256 8.32322 8.46967 8.03033L6 5.56066L3.53033 8.03033C3.23744 8.32322 2.76256 8.32322 2.46967 8.03033C2.17678 7.73744 2.17678 7.26256 2.46967 6.96967L5.46967 3.96967Z"/>
</symbol><symbol id="close" viewBox="0 0 12 12">
<path fill-rule="evenodd" clip-rule="evenodd" d="M9.65533 2.13642C9.94822 2.42931 9.94822 2.90418 9.65533 3.19708L3.40533 9.44708C3.11244 9.73997 2.63756 9.73997 2.34467 9.44708C2.05178 9.15419 2.05178 8.67931 2.34467 8.38642L8.59467 2.13642C8.88756 1.84352 9.36244 1.84352 9.65533 2.13642Z"/>
<path fill-rule="evenodd" clip-rule="evenodd" d="M2.34467 2.13642C2.63756 1.84352 3.11244 1.84352 3.40533 2.13642L9.65533 8.38642C9.94822 8.67931 9.94822 9.15419 9.65533 9.44708C9.36244 9.73997 8.88756 9.73997 8.59467 9.44708L2.34467 3.19708C2.05178 2.90418 2.05178 2.42931 2.34467 2.13642Z"/>
</symbol><symbol id="copy" viewBox="0 0 12 12">
<path fill-rule="evenodd" clip-rule="evenodd" d="M2.42308 2.25C2.37717 2.25 2.33315 2.26823 2.30069 2.30069C2.26823 2.33315 2.25 2.37717 2.25 2.42308V6.57692C2.25 6.62283 2.26823 6.66685 2.30069 6.69931C2.33315 6.73177 2.37717 6.75 2.42308 6.75H2.5C2.91421 6.75 3.25 7.08579 3.25 7.5C3.25 7.91421 2.91421 8.25 2.5 8.25H2.42308C1.97935 8.25 1.5538 8.07373 1.24003 7.75997C0.92627 7.4462 0.75 7.02065 0.75 6.57692V2.42308C0.75 1.97935 0.92627 1.5538 1.24003 1.24003C1.5538 0.92627 1.97935 0.75 2.42308 0.75H6.57692C7.02065 0.75 7.4462 0.92627 7.75997 1.24003C8.07373 1.5538 8.25 1.97935 8.25 2.42308V2.5C8.25 2.91421 7.91421 3.25 7.5 3.25C7.08579 3.25 6.75 2.91421 6.75 2.5V2.42308C6.75 2.37717 6.73177 2.33315 6.69931 2.30069C6.66685 2.26823 6.62283 2.25 6.57692 2.25H2.42308ZM5.42308 5.25C5.32749 5.25 5.25 5.32749 5.25 5.42308V9.57692C5.25 9.67251 5.32749 9.75 5.42308 9.75H9.57692C9.67251 9.75 9.75 9.67251 9.75 9.57692V5.42308C9.75 5.32749 9.67251 5.25 9.57692 5.25H5.42308ZM3.75 5.42308C3.75 4.49906 4.49906 3.75 5.42308 3.75H9.57692C10.5009 3.75 11.25 4.49906 11.25 5.42308V9.57692C11.25 10.5009 10.5009 11.25 9.57692 11.25H5.42308C4.49906 11.25 3.75 10.5009 3.75 9.57692V5.42308Z"/>
</symbol><symbol id="delete" viewBox="0 0 12 12">
<path fill-rule="evenodd" clip-rule="evenodd" d="M5.0001 2.14998C4.90727 2.14998 4.81825 2.18685 4.75261 2.25249C4.68697 2.31813 4.6501 2.40715 4.6501 2.49998V2.84998H7.3501L7.3501 2.49998C7.3501 2.40715 7.31322 2.31813 7.24758 2.25249C7.18195 2.18685 7.09292 2.14998 7.0001 2.14998H5.0001ZM8.6501 2.84998L8.6501 2.49998C8.6501 2.06237 8.47626 1.64268 8.16682 1.33325C7.85739 1.02381 7.43771 0.849976 7.0001 0.849976H5.0001C4.56249 0.849976 4.14281 1.02381 3.83337 1.33325C3.52394 1.64268 3.3501 2.06237 3.3501 2.49998V2.84998H1.5001C1.14111 2.84998 0.850098 3.14099 0.850098 3.49998C0.850098 3.85896 1.14111 4.14998 1.5001 4.14998H1.8501V9.49998C1.8501 9.93758 2.02394 10.3573 2.33337 10.6667C2.64281 10.9761 3.06249 11.15 3.5001 11.15H8.5001C8.93771 11.15 9.35739 10.9761 9.66682 10.6667C9.97626 10.3573 10.1501 9.93758 10.1501 9.49998V4.14998H10.5001C10.8591 4.14998 11.1501 3.85896 11.1501 3.49998C11.1501 3.14099 10.8591 2.84998 10.5001 2.84998H8.6501ZM8.8501 4.14998H3.1501V9.49998C3.1501 9.5928 3.18697 9.68182 3.25261 9.74746C3.31825 9.8131 3.40727 9.84998 3.5001 9.84998H8.5001C8.59292 9.84998 8.68195 9.8131 8.74759 9.74746C8.81322 9.68182 8.8501 9.5928 8.8501 9.49998V4.14998Z"/>
<path fill-rule="evenodd" clip-rule="evenodd" d="M5.0001 4.99998C5.27624 4.99998 5.5001 5.22383 5.5001 5.49998V8.49998C5.5001 8.77612 5.27624 8.99998 5.0001 8.99998C4.72396 8.99998 4.5001 8.77612 4.5001 8.49998V5.49998C4.5001 5.22383 4.72396 4.99998 5.0001 4.99998ZM7.0001 4.99998C7.27624 4.99998 7.5001 5.22383 7.5001 5.49998V8.49998C7.5001 8.77612 7.27624 8.99998 7.0001 8.99998C6.72396 8.99998 6.5001 8.77612 6.5001 8.49998V5.49998C6.5001 5.22383 6.72396 4.99998 7.0001 4.99998Z"/>
</symbol><symbol id="edit" viewBox="0 0 12 12">
<path fill-rule="evenodd" clip-rule="evenodd" d="M9.00002 2.33582C8.91279 2.33582 8.82642 2.353 8.74583 2.38638C8.66525 2.41976 8.59202 2.46868 8.53035 2.53036L2.92118 8.13955L2.56893 9.43114L3.86052 9.07889L9.46969 3.4697L9.88902 3.88903L9.46969 3.4697C9.53137 3.40802 9.58029 3.3348 9.61367 3.25421C9.64705 3.17363 9.66423 3.08726 9.66423 3.00003C9.66423 2.9128 9.64705 2.82643 9.61367 2.74585C9.58029 2.66526 9.53137 2.59204 9.46969 2.53036C9.40801 2.46868 9.33479 2.41976 9.2542 2.38638C9.17361 2.353 9.08724 2.33582 9.00002 2.33582ZM8.17181 1.00056C8.43438 0.891794 8.71581 0.835815 9.00002 0.835815C9.28423 0.835815 9.56565 0.891794 9.82823 1.00056C10.0908 1.10932 10.3294 1.26873 10.5303 1.4697C10.7313 1.67066 10.8907 1.90924 10.9995 2.17182C11.1083 2.4344 11.1642 2.71582 11.1642 3.00003C11.1642 3.28424 11.1083 3.56566 10.9995 3.82824C10.8907 4.09081 10.7313 4.32939 10.5303 4.53036L4.78035 10.2804C4.68806 10.3727 4.57328 10.4393 4.44736 10.4736L1.69736 11.2236C1.4377 11.2944 1.16 11.2207 0.969687 11.0304C0.779375 10.8401 0.705628 10.5624 0.776445 10.3027L1.52644 7.55272C1.56079 7.4268 1.6274 7.31202 1.71969 7.21973L7.46969 1.4697L8.00002 2.00003L7.46969 1.4697C7.67065 1.26873 7.90923 1.10932 8.17181 1.00056Z"/>
</symbol><symbol id="locked" viewBox="0 0 12 12">
<path fill-rule="evenodd" clip-rule="evenodd" d="M2.95833 6.27086C2.84327 6.27086 2.75 6.36413 2.75 6.47919V9.54165C2.75 9.65671 2.84327 9.74998 2.95833 9.74998H9.04167C9.15673 9.74998 9.25 9.65671 9.25 9.54165V6.47919C9.25 6.36413 9.15673 6.27086 9.04167 6.27086H2.95833ZM1.25 6.47919C1.25 5.5357 2.01485 4.77086 2.95833 4.77086H9.04167C9.98515 4.77086 10.75 5.5357 10.75 6.47919V9.54165C10.75 10.4851 9.98515 11.25 9.04167 11.25H2.95833C2.01485 11.25 1.25 10.4851 1.25 9.54165V6.47919Z"/>
<path fill-rule="evenodd" clip-rule="evenodd" d="M5.6471 2.27563C5.43391 2.31246 5.29371 2.37888 5.23214 2.44045C4.92349 2.7491 4.75009 3.16773 4.75009 3.60423V5.5209C4.75009 5.93511 4.4143 6.2709 4.00009 6.2709C3.58588 6.2709 3.25009 5.93511 3.25009 5.5209V3.60423C3.25009 2.7699 3.58152 1.96975 4.17148 1.37979C4.55922 0.992048 5.06816 0.853421 5.39178 0.79752C5.56601 0.767424 5.72021 0.755763 5.83147 0.751465C5.88764 0.749296 5.93429 0.74895 5.96878 0.749228C5.98064 0.749324 5.99111 0.749494 6.00009 0.749691C6.00907 0.749494 6.01954 0.749324 6.03139 0.749228C6.06588 0.74895 6.11253 0.749296 6.16869 0.751466C6.27993 0.755764 6.43412 0.767425 6.60833 0.797524C6.93193 0.853431 7.4408 0.992069 7.82852 1.37979C8.41847 1.96975 8.74991 2.7699 8.74991 3.60423V5.5209C8.74991 5.93511 8.41412 6.2709 7.99991 6.2709C7.58569 6.2709 7.24991 5.93511 7.24991 5.5209V3.60423C7.24991 3.16773 7.07651 2.7491 6.76786 2.44045C6.70627 2.37886 6.56609 2.31245 6.35296 2.27563C6.25882 2.25936 6.17272 2.25274 6.11078 2.25035C6.08035 2.24917 6.05717 2.24907 6.04349 2.24918L6.03075 2.24939L6.03322 2.24928L6.03429 2.24923L6.03075 2.24939M5.96943 2.24939L5.95669 2.24918C5.94299 2.24907 5.91981 2.24917 5.88937 2.25035C5.8274 2.25274 5.74128 2.25936 5.6471 2.27563"/>
</symbol><symbol id="settings" viewBox="0 0 12 12">
<path fill-rule="evenodd" clip-rule="evenodd" d="M5.99996 5.16496C5.5388 5.16496 5.16496 5.5388 5.16496 5.99996C5.16496 6.46112 5.5388 6.83496 5.99996 6.83496C6.46112 6.83496 6.83496 6.46112 6.83496 5.99996C6.83496 5.5388 6.46112 5.16496 5.99996 5.16496ZM3.83496 5.99996C3.83496 4.80426 4.80426 3.83496 5.99996 3.83496C7.19566 3.83496 8.16496 4.80426 8.16496 5.99996C8.16496 7.19566 7.19566 8.16496 5.99996 8.16496C4.80426 8.16496 3.83496 7.19566 3.83496 5.99996Z"/>
<path fill-rule="evenodd" clip-rule="evenodd" d="M5.99996 1.66496C5.93522 1.66496 5.87314 1.69068 5.82736 1.73645C5.78159 1.78223 5.75587 1.84432 5.75587 1.90905V1.98898C5.75477 2.26493 5.673 2.53455 5.52063 2.76462C5.36826 2.9947 5.15193 3.17521 4.89829 3.28392C4.84915 3.30498 4.79777 3.31998 4.74528 3.3287C4.52035 3.40381 4.27941 3.4214 4.04469 3.37884C3.76649 3.3284 3.50979 3.19578 3.30768 2.99807L3.30243 2.99294L3.27519 2.96564C3.25252 2.94295 3.22534 2.92468 3.19571 2.9124C3.16607 2.90011 3.13431 2.89379 3.10223 2.89379C3.07016 2.89379 3.03839 2.90011 3.00876 2.9124C2.97913 2.92468 2.95221 2.94269 2.92954 2.96538C2.90684 2.98805 2.88832 3.01549 2.87603 3.04513C2.86375 3.07476 2.85743 3.10652 2.85743 3.1386C2.85743 3.17067 2.86375 3.20244 2.87603 3.23207C2.88832 3.2617 2.90632 3.28862 2.92902 3.31129L2.96174 3.34401C3.15944 3.54613 3.29203 3.80286 3.34248 4.08105C3.39167 4.35235 3.3605 4.63195 3.25305 4.88554C3.15373 5.1437 2.98084 5.36726 2.7556 5.52836C2.52466 5.69353 2.24936 5.78541 1.96551 5.79205L1.94996 5.79223H1.90905C1.84432 5.79223 1.78223 5.81795 1.73645 5.86373C1.69068 5.9095 1.66496 5.97159 1.66496 6.03632C1.66496 6.10106 1.69068 6.16315 1.73645 6.20892C1.78223 6.2547 1.84432 6.28042 1.90905 6.28042H1.98898C2.26493 6.28152 2.53455 6.36329 2.76462 6.51566C2.99372 6.66738 3.17366 6.88249 3.28251 7.13473C3.39551 7.39253 3.42907 7.67821 3.37884 7.95523C3.3284 8.23343 3.19578 8.49013 2.99807 8.69225L2.99294 8.69749L2.96564 8.72473C2.94295 8.7474 2.92468 8.77458 2.9124 8.80422C2.90011 8.83385 2.89379 8.86561 2.89379 8.89769C2.89379 8.92977 2.90011 8.96153 2.9124 8.99116C2.92468 9.02079 2.94269 9.04771 2.96538 9.07038C2.98805 9.09308 3.01549 9.1116 3.04513 9.12389C3.07476 9.13617 3.10652 9.14249 3.1386 9.14249C3.17067 9.14249 3.20244 9.13617 3.23207 9.12389C3.2617 9.1116 3.28862 9.0936 3.31129 9.07091L3.34401 9.03819C3.54613 8.84048 3.80286 8.70789 4.08105 8.65745C4.35235 8.60826 4.63195 8.63942 4.88554 8.74687C5.14371 8.8462 5.36726 9.01909 5.52836 9.24433C5.69353 9.47527 5.78541 9.75056 5.79205 10.0344L5.79223 10.05V10.0909C5.79223 10.1556 5.81795 10.2177 5.86373 10.2635C5.9095 10.3092 5.97159 10.335 6.03632 10.335C6.10106 10.335 6.16315 10.3092 6.20892 10.2635C6.2547 10.2177 6.28042 10.1556 6.28042 10.0909V10.0136L6.28042 10.0109C6.28152 9.73499 6.36329 9.46538 6.51566 9.2353C6.66738 9.00621 6.88249 8.82627 7.13473 8.71741C7.39253 8.60441 7.67821 8.57085 7.95523 8.62108C8.23343 8.67152 8.49013 8.80415 8.69225 9.00185L8.69749 9.00698L8.72473 9.03428C8.7474 9.05697 8.77458 9.07524 8.80422 9.08752C8.83385 9.09981 8.86561 9.10613 8.89769 9.10613C8.92977 9.10613 8.96153 9.09981 8.99116 9.08752C9.02079 9.07524 9.04771 9.05724 9.07038 9.03454C9.09308 9.01187 9.1116 8.98443 9.12389 8.9548C9.13617 8.92516 9.14249 8.8934 9.14249 8.86133C9.14249 8.82925 9.13617 8.79749 9.12389 8.76785C9.1116 8.73822 9.0936 8.7113 9.07091 8.68863L9.03819 8.65591C8.84048 8.4538 8.70789 8.19706 8.65745 7.91887C8.60722 7.64185 8.64077 7.35617 8.75377 7.09837C8.86263 6.84613 9.04257 6.63101 9.27166 6.4793C9.50174 6.32693 9.77135 6.24516 10.0473 6.24406L10.05 6.24405L10.0909 6.24405C10.1556 6.24405 10.2177 6.21834 10.2635 6.17256C10.3092 6.12678 10.335 6.0647 10.335 5.99996C10.335 5.93522 10.3092 5.87314 10.2635 5.82736C10.2177 5.78159 10.1556 5.75587 10.0909 5.75587H10.0136L10.0109 5.75586C9.73499 5.75476 9.46538 5.673 9.2353 5.52063C9.00522 5.36826 8.82472 5.15193 8.71601 4.89829C8.69494 4.84915 8.67994 4.79777 8.67122 4.74528C8.59612 4.52035 8.57852 4.27941 8.62108 4.04469C8.67152 3.76649 8.80415 3.50979 9.00185 3.30768L9.00698 3.30244L9.03428 3.27519C9.05697 3.25252 9.07524 3.22534 9.08752 3.19571C9.09981 3.16607 9.10613 3.13431 9.10613 3.10223C9.10613 3.07016 9.09981 3.03839 9.08752 3.00876C9.07524 2.97913 9.05724 2.95221 9.03454 2.92954C9.01187 2.90684 8.98443 2.88832 8.9548 2.87603C8.92517 2.86375 8.8934 2.85743 8.86133 2.85743C8.82925 2.85743 8.79749 2.86375 8.76785 2.87603C8.73822 2.88832 8.7113 2.90632 8.68863 2.92902L8.65591 2.96174C8.4538 3.15944 8.19706 3.29203 7.91887 3.34248C7.64186 3.3927 7.3562 3.35915 7.0984 3.24616C6.84615 3.13731 6.63102 2.95736 6.4793 2.72826C6.32693 2.49818 6.24516 2.22857 6.24406 1.95261L6.24405 1.94996V1.90905C6.24405 1.84432 6.21834 1.78223 6.17256 1.73645C6.12678 1.69068 6.0647 1.66496 5.99996 1.66496ZM4.88691 0.796001C5.18211 0.500802 5.58249 0.334961 5.99996 0.334961C6.41744 0.334961 6.81781 0.500802 7.11301 0.796001C7.40821 1.0912 7.57405 1.49158 7.57405 1.90905V1.94797C7.57424 1.96432 7.57915 1.98027 7.58818 1.9939C7.59733 2.00772 7.61033 2.01857 7.62556 2.0251L7.63212 2.02791C7.64765 2.03476 7.66488 2.03684 7.68159 2.03381C7.69769 2.03089 7.7126 2.02339 7.72452 2.01222L7.74765 1.98909C7.89385 1.84273 8.06745 1.72663 8.25854 1.64742C8.44963 1.5682 8.65446 1.52743 8.86133 1.52743C9.06819 1.52743 9.27302 1.5682 9.46411 1.64742C9.6552 1.72663 9.8288 1.84273 9.97499 1.98909C10.1211 2.13517 10.237 2.30859 10.3161 2.49945C10.3954 2.69054 10.4361 2.89537 10.4361 3.10223C10.4361 3.30909 10.3954 3.51393 10.3161 3.70502C10.237 3.89599 10.121 4.0695 9.97473 4.21564L9.95135 4.23902C9.94018 4.25095 9.93267 4.26586 9.92974 4.28197C9.92671 4.29868 9.92876 4.31592 9.93562 4.33146C9.94656 4.35625 9.95595 4.38164 9.96377 4.40747C9.96566 4.40897 9.96763 4.4104 9.96966 4.41174C9.98329 4.42078 9.99924 4.42568 10.0156 4.42587H10.0909C10.5083 4.42587 10.9087 4.59171 11.2039 4.88691C11.4991 5.18211 11.665 5.58249 11.665 5.99996C11.665 6.41744 11.4991 6.81781 11.2039 7.11301C10.9087 7.40821 10.5083 7.57405 10.0909 7.57405H10.0519C10.0356 7.57424 10.0197 7.57915 10.006 7.58818C9.9922 7.59733 9.98135 7.61033 9.97482 7.62556L9.97202 7.63212C9.96516 7.64765 9.96308 7.66487 9.96611 7.68159C9.96903 7.69769 9.97653 7.7126 9.9877 7.72452L10.0108 7.74765C10.1571 7.89379 10.2733 8.06756 10.3525 8.25854C10.4317 8.44963 10.4725 8.65446 10.4725 8.86133C10.4725 9.06819 10.4317 9.27302 10.3525 9.46411C10.2733 9.65508 10.1573 9.8286 10.0111 9.97473C9.86496 10.121 9.69145 10.237 9.50047 10.3161C9.30938 10.3954 9.10455 10.4361 8.89769 10.4361C8.69083 10.4361 8.486 10.3954 8.29491 10.3161C8.10393 10.237 7.93042 10.121 7.78428 9.97473L7.76089 9.95134C7.74896 9.94017 7.73406 9.93266 7.71795 9.92974C7.70124 9.92671 7.684 9.92876 7.66847 9.93562L7.66194 9.9385C7.64671 9.94503 7.6337 9.95583 7.62454 9.96966C7.61551 9.98329 7.61061 9.99924 7.61042 10.0156V10.0909C7.61042 10.5083 7.44457 10.9087 7.14937 11.2039C6.85418 11.4991 6.4538 11.665 6.03632 11.665C5.61885 11.665 5.21847 11.4991 4.92327 11.2039C4.62808 10.9087 4.46223 10.5083 4.46223 10.0909V10.0616C4.46114 10.0459 4.45574 10.0309 4.44658 10.0181C4.43665 10.0042 4.42279 9.99361 4.40678 9.98772C4.39363 9.98289 4.38064 9.97764 4.36782 9.97198C4.35228 9.96512 4.33505 9.96308 4.31834 9.96611C4.30223 9.96903 4.28733 9.97653 4.2754 9.9877L4.25227 10.0108C4.10613 10.1571 3.93236 10.2733 3.74138 10.3525C3.55029 10.4317 3.34546 10.4725 3.1386 10.4725C2.93174 10.4725 2.72691 10.4317 2.53581 10.3525C2.34495 10.2734 2.17153 10.1575 2.02545 10.0114C1.8791 9.86517 1.76299 9.69156 1.68378 9.50047C1.60456 9.30938 1.56379 9.10455 1.56379 8.89769C1.56379 8.69083 1.60456 8.486 1.68378 8.29491C1.76299 8.10381 1.8791 7.93021 2.02545 7.78402L2.04858 7.76089C2.05975 7.74896 2.06726 7.73406 2.07018 7.71795C2.07321 7.70124 2.07116 7.684 2.0643 7.66847L2.06142 7.66194C2.05489 7.6467 2.04409 7.63369 2.03027 7.62454C2.01663 7.61551 2.00068 7.61061 1.98434 7.61042H1.90905C1.49158 7.61042 1.0912 7.44457 0.796001 7.14937C0.500802 6.85418 0.334961 6.4538 0.334961 6.03632C0.334961 5.61885 0.500802 5.21847 0.796001 4.92327C1.0912 4.62808 1.49158 4.46223 1.90905 4.46223H1.93832C1.95398 4.46114 1.96906 4.45574 1.98187 4.44658C1.99574 4.43665 2.00631 4.42279 2.0122 4.40678C2.01703 4.39363 2.02228 4.38064 2.02794 4.36782C2.0348 4.35228 2.03684 4.33505 2.03381 4.31834C2.03089 4.30223 2.02339 4.28732 2.01222 4.2754L1.98909 4.25227C1.84286 4.10613 1.72658 3.93236 1.64742 3.74138C1.5682 3.55029 1.52743 3.34546 1.52743 3.1386C1.52743 2.93174 1.5682 2.72691 1.64742 2.53581C1.72658 2.34484 1.8426 2.17133 1.98883 2.02519C2.13496 1.87896 2.30847 1.76295 2.49945 1.68378C2.69054 1.60456 2.89537 1.56379 3.10223 1.56379C3.30909 1.56379 3.51393 1.60456 3.70502 1.68378C3.89599 1.76295 4.06951 1.87896 4.21564 2.02519L4.23903 2.04858C4.25096 2.05975 4.26587 2.06726 4.28197 2.07018C4.29868 2.07321 4.31592 2.07116 4.33146 2.0643C4.35625 2.05336 4.38164 2.04397 4.40747 2.03616C4.40897 2.03426 4.4104 2.0323 4.41174 2.03027C4.42078 2.01663 4.42568 2.00068 4.42587 1.98434V1.90905C4.42587 1.49158 4.59171 1.0912 4.88691 0.796001Z"/>
</symbol><symbol id="subtract" viewBox="0 0 12 12">
<g>
<path fill-rule="evenodd" clip-rule="evenodd" d="M10.7499 6C10.7499 6.41421 10.4141 6.75 9.99989 6.75L1.99989 6.75C1.58567 6.75 1.24989 6.41421 1.24989 6C1.24989 5.58579 1.58567 5.25 1.99989 5.25L9.99989 5.25C10.4141 5.25 10.7499 5.58579 10.7499 6Z"/>
</g>
</symbol></svg>